<?xml version="1.0" encoding="UTF-8"?>
<svg id="Layer_1" data-name="Layer 1" xmlns="http://www.w3.org/2000/svg" xmlns:xlink="http://www.w3.org/1999/xlink" viewBox="0 0 575.59 511.97">
  <defs>
    <style>
      .cls-1 {
        fill: url(#radial-gradient);
      }

      .cls-1, .cls-2, .cls-3 {
        fill-rule: evenodd;
      }

      .cls-4, .cls-2, .cls-5 {
        fill: #a7a9ac;
      }

      .cls-2, .cls-3, .cls-5 {
        stroke-miterlimit: 10;
        stroke-width: 5px;
      }

      .cls-2, .cls-5 {
        stroke: #e6e7e8;
      }

      .cls-3 {
        fill: #939598;
        stroke: #d1d3d4;
      }

      .cls-6 {
        fill: #e6e7e8;
      }

      .cls-7 {
        fill: #58595b;
      }
    </style>
    <radialGradient id="radial-gradient" cx="292.95" cy="272.62" fx="292.95" fy="272.62" r="166.9" gradientUnits="userSpaceOnUse">
      <stop offset="0" stop-color="#e6e7e8"/>
      <stop offset=".68" stop-color="#a7a9ac"/>
    </radialGradient>
  </defs>
  <path class="cls-5" d="m256.04,357.38c-38.62-14.17-75.69-30.43-115.1-44.47"/>
  <rect class="cls-7" x="227.78" y="187.12" width="0" height="0"/>
  <g>
    <g>
      <polygon class="cls-4" points="70.58 94.64 225.28 5.32 225.28 187.38 70.39 275.14 70.58 94.64"/>
      <path class="cls-6" d="m222.78,9.65v176.27l-94.39,53.48-55.49,31.44.18-174.77L222.78,9.65m5-8.66L68.08,93.19c-.06,62.08-.13,124.16-.19,186.24,53.87-30.52,107.74-61.05,161.61-91.57l-1.72-.74V.99h0Z"/>
    </g>
    <g>
      <polygon class="cls-4" points="233.28 186.76 233.28 4.35 443.85 94.84 443.85 277.26 233.28 186.76"/>
      <path class="cls-6" d="m235.78,8.14l205.57,88.34v176.98l-205.57-88.34V8.14m-5-7.59v186.57l-1.28.74,216.85,93.19V93.19L230.78.55h0Z"/>
    </g>
    <g>
      <polygon class="cls-4" points="230.78 .55 229.5 0 227.78 .99 227.78 187.12 229.5 187.86 230.78 187.12 230.78 .55"/>
      <polygon class="cls-6" points="229.5 0 227.78 .99 227.78 187.12 229.5 187.86 230.78 187.12 230.78 .55 229.5 0 229.5 0"/>
    </g>
  </g>
  <path class="cls-2" d="m227.78,183.44c-52.43,30.71-104.86,61.43-157.28,92.14-2.91,12.56-7.17,26.71-13.52,41.76-13.21,31.32-30.53,54.93-44.87,71.24,9.37-5.47,23.62-13.79,41.02-23.88,30.56-17.72,60.75-36.06,91.3-53.81,43.21-25.11,51.16-28.91,58.93-42.06,7.26-12.29,11.25-27.46,16.42-47.15,4.14-15.77,6.57-29.05,8.02-38.23Z"/>
  <path class="cls-3" d="m444.32,277.98c-62.76,26.47-125.52,52.93-188.28,79.4,5.23,7.8,15.29,20.64,32.02,31.33,15.97,10.2,31.08,14.03,40.2,15.62,32.61-16.01,67.65-32.01,105.08-47.53,38.03-15.77,74.66-29.46,109.53-41.36-10.35,1.06-27.27,1.43-46.72-4.6-27.13-8.4-44.2-24.6-51.82-32.86Z"/>
  <path class="cls-4" d="m24.1,421.45c9.29,13.7,22.42,24.93,38.22,30.32,9.19,3.14,19.22,4.2,28.89,3.65,8.69-.49,18.27-2.21,25.36-7.6,3.39-2.58,5.93-5.87,7.28-9.94,1.57-4.74,1.7-10.41-.64-14.92-2.61-5.03-8.14-6.57-13.44-6.33-3.69.17-7.51.7-11.11,1.53-4.07.94-8.11,2.5-11.32,5.24s-4.98,6.97-4.77,11.24c.23,4.64,2.28,8.92,5.15,12.5,3.25,4.05,7.57,6.78,12.24,8.91,20.81,9.52,44.44,11.61,66.61,5.89,1.8-.46,3.58-.98,5.34-1.54,3.06-.97,1.75-5.8-1.33-4.82-19.54,6.2-40.68,6.08-60.08-.65-8.15-2.83-17.04-6.41-21.24-14.48-.81-1.55-1.41-3.28-1.64-5.11.04.36-.01-.21-.02-.29-.01-.23-.03-.45-.04-.68-.01-.44,0-.89.03-1.33.04-.51.17-1.27.44-2.11.99-3.04,4.02-5.18,6.91-6.38,1.7-.71,3.5-1.22,5.31-1.62.73-.16,1.46-.31,2.19-.43.37-.06.74-.12,1.11-.18.17-.03.34-.05.52-.08.08-.01.74-.1.34-.05-.35.05.39-.05.53-.07.42-.05.84-.11,1.26-.16,1.13-.14,2.26-.26,3.4-.32,2.08-.11,4.33-.09,6.25.82,3.83,1.81,4.46,6.59,4.03,10.38-.22,1.97-.78,4-1.69,5.74-.86,1.63-1.54,2.51-2.84,3.77-2.35,2.28-5.57,4.01-8.74,5.15-3.87,1.39-7.96,2.24-12.03,2.66-8.52.88-17.27.39-25.56-1.64-9.12-2.23-17.66-6.59-24.95-12.5-2.97-2.41-5.75-5.04-8.33-7.85-1.12-1.22-2.2-2.47-3.25-3.75-.42-.51-.83-1.03-1.24-1.56.34.44-.26-.35-.36-.47-.21-.28-.42-.57-.63-.85-.63-.86-1.24-1.73-1.84-2.61-1.8-2.65-6.13-.15-4.32,2.52h0Z"/>
  <path class="cls-4" d="m190.88,508.42c8.73,2.39,17.85,3.6,26.9,3.55,13.81-.07,27.31-3.32,39.58-9.66,5.52-2.85,10.76-6.23,15.62-10.12,4.05-3.24,7.95-6.95,10.69-11.4,2.05-3.33,3.49-7.56,1.99-11.38-2.04-5.19-7.93-7.76-13.04-8.81-5.61-1.16-11.47-.74-16.9,1.07-4.96,1.66-10.27,4.59-12.45,9.61-2.33,5.38.14,10.95,3.92,14.93,3.23,3.41,7.58,5.54,12.07,6.75,8.71,2.36,18.01,1.82,26.85.59,11.28-1.57,22.09-5.25,32.03-10.81,7.29-4.08,14.03-9.12,20.32-14.61,8.97-7.82,16.62-17.31,21.97-27.96.95-1.89,1.82-3.83,2.64-5.78.52-1.25-.56-2.75-1.75-3.08-1.44-.4-2.55.5-3.08,1.75.2-.48-.11.26-.12.28-.1.23-.2.45-.3.68-.17.39-.35.78-.53,1.17-.42.91-.86,1.81-1.31,2.71-1.02,2.02-2.13,3.99-3.31,5.92-2.84,4.63-6.11,8.96-9.77,12.97s-7.54,7.52-11.67,10.89c-.58.47-1.16.94-1.74,1.41-.8.63-1.07.84-1.67,1.3-1.54,1.17-3.12,2.31-4.72,3.39-8.48,5.76-17.79,10.24-27.72,12.86-3.02.79-6.08,1.42-9.16,1.87-.54.08-1.08.16-1.62.23-.13.02-.48.06.13-.02-.19.02-.38.05-.57.07-.41.05-.82.1-1.23.15-3.99.46-8.01.7-12.02.58-4.55-.14-9.02-.73-13.33-2.37-3.33-1.27-6.55-3.61-8.44-6.41-1.14-1.68-2.08-3.68-1.83-5.77.26-2.2,1.72-3.9,3.36-5.22,3.62-2.92,8.68-4.38,13.26-4.76,4.82-.4,10.13.37,14.26,3.04,1.59,1.03,2.59,2.24,3.01,3.89.03.13.05.26.07.39-.1-.65-.01.02-.01.14,0,.35,0,.69-.02,1.03-.04.69.11-.51-.02.18-.04.18-.07.36-.11.54-.11.49-.27.96-.43,1.43-.18.53-.48,1.11-.92,1.9-.55.98-1.18,1.92-1.86,2.81-1.28,1.67-3,3.45-4.63,4.97-4,3.74-8.51,6.92-13.21,9.73-10.74,6.42-22.63,10.51-35.13,11.57-9.7.82-19.39.08-28.81-2.07-1.31-.3-2.62-.63-3.92-.98-3.11-.85-4.43,3.97-1.33,4.82h0Z"/>
  <path class="cls-4" d="m443.48,393.15c-1.06,7.58-3.9,14.81-8.36,21.05-5.45,7.62-13.46,13.37-22.25,16.37-2.75.94-5.59,1.64-8.47,2.07-1.34.2-2.07,1.88-1.75,3.08.39,1.43,1.73,1.95,3.08,1.75,17.96-2.71,33.28-15.24,39.77-32.15,1.34-3.49,2.28-7.12,2.8-10.82.19-1.34-.33-2.68-1.75-3.08-1.17-.32-2.89.4-3.08,1.75h0Z"/>
  <path class="cls-4" d="m472.2,415.14c-.17.49-.34.98-.52,1.46-.11.29-.22.58-.34.88-.06.16-.13.31-.19.47-.24.59.08-.17-.13.3-.69,1.59-1.45,3.14-2.3,4.65-2.32,4.14-5.21,7.9-8.64,11.18-7.7,7.35-17.94,11.75-28.49,12.56-3.23.25-6.49.2-9.72-.17-1.34-.16-2.5,1.26-2.5,2.5,0,1.48,1.15,2.34,2.5,2.5,7.9.93,16.17-.04,23.65-2.73,11.08-3.97,20.49-11.7,26.6-21.76,2.01-3.31,3.64-6.85,4.89-10.52,1.04-3.05-3.79-4.36-4.82-1.33h0Z"/>
  <path class="cls-1" d="m256.04,357.38c-36.89-14.79-73.78-29.58-110.67-44.38,5.32-2.94,10.63-5.88,15.95-8.82,6.47-3.95,12.94-7.91,19.41-11.86,3.97-2.3,9.08-5.73,14.3-10.72,5.9-5.63,9.42-10.84,10.6-12.64,4.81-7.35,7.51-14.55,9.06-20.43,3.41-10.89,6.66-22.6,9.57-35.11,2.06-8.83,3.78-17.37,5.23-25.57,70.34,29.54,140.68,59.09,211.02,88.63-61.49,26.96-122.99,53.93-184.48,80.89Z"/>
</svg>